<?xml version="1.0" encoding="UTF-8"?>
<svg xmlns="http://www.w3.org/2000/svg" xmlns:xlink="http://www.w3.org/1999/xlink" viewBox="0 0 5808 1810">
<symbol id="email" viewBox="0 0 512 512">
<g stroke="none" stroke-width="1" fill="none" fill-rule="evenodd">
<g transform="translate(0, 64)" fill="currentColor" fill-rule="nonzero">
<path d="M48,86.8 L256,229.8 L464,86.8 L464,48 L48,48 L48,86.8 Z M464,145 L256,288 L48,145 L48,336 L464,336 L464,145 Z M0,336 L0,112 L0,48 L0,0 L48,0 L464,0 L512,0 L512,48 L512,112 L512,336 L512,384 L464,384 L48,384 L0,384 L0,336 Z" ></path>
</g>
</g>
</symbol>
<symbol id="link" viewBox="0 0 512 512">
<g stroke="none" stroke-width="1" fill="none" fill-rule="evenodd">
<g transform="translate(0, 58)" fill="currentColor" fill-rule="nonzero">
<path d="M476.311559,208.082397 C523.896147,160.503776 523.896147,83.2943412 476.311559,35.7157201 C428.726972,-11.8629009 351.507855,-11.9475604 303.923268,35.7157201 L294.355548,45.28224 L332.711096,83.632979 L342.278816,74.0664592 C368.695882,47.6527051 411.623615,47.6527051 438.040681,74.0664592 C464.457748,100.480213 464.457748,143.402563 438.040681,169.816318 L342.194146,265.566176 C315.77708,291.97993 272.849347,291.97993 246.43228,265.566176 C224.756739,243.893352 220.777245,211.130138 234.747809,185.478319 C236.27187,182.599897 238.049942,179.806135 240.082024,177.181691 L196.730941,144.672456 C193.090127,149.498045 189.872664,154.492954 187.078551,159.741841 C162.100876,205.96591 169.043823,264.8889 208.161402,303.916915 C255.74599,351.495536 332.965107,351.495536 380.549694,303.916915 L476.311559,208.082397 Z M35.6884405,188.949357 C-11.8961468,236.527978 -11.8961468,313.737413 35.6884405,361.316034 C83.2730279,408.894655 160.492145,408.894655 208.076732,361.316034 L217.644452,351.749514 L179.288904,313.398775 L169.721184,322.965295 C143.304118,349.379049 100.376385,349.379049 73.9593187,322.965295 C47.5422524,296.551541 47.5422524,253.629191 73.9593187,227.215437 L169.805854,131.465578 C196.22292,105.051824 239.150653,105.051824 265.56772,131.465578 C287.243261,153.138402 291.222755,185.901616 277.252191,211.553435 C275.72813,214.431857 273.950058,217.22562 271.917976,219.850063 L315.269059,252.359299 C318.909873,247.533709 322.127336,242.538801 324.921449,237.289914 C349.899124,191.065844 342.956177,132.142854 303.838598,93.1148395 C256.25401,45.5362184 179.034893,45.5362184 131.450306,93.1148395 L35.6884405,188.949357 Z" ></path>
</g>
</g>
</symbol>
<symbol id="address" viewBox="0 0 512 512">
<g stroke="none" stroke-width="1" fill="none" fill-rule="evenodd">
<path d="M384,48 L384,464 L64,464 L64,48 L384,48 Z M64,0 L16,0 L16,48 L16,464 L16,512 L64,512 L384,512 L432,512 L432,464 L432,48 L432,0 L384,0 L64,0 Z M224,256 C259.346224,256 288,227.346224 288,192 C288,156.653776 259.346224,128 224,128 C188.653776,128 160,156.653776 160,192 C160,227.346224 188.653776,256 224,256 Z M112,384 L336,384 L304,288 L144,288 L112,384 Z M496,80 L496,64 L464,64 L464,80 L464,144 L464,160 L496,160 L496,144 L496,80 Z M496,192 L464,192 L464,208 L464,272 L464,288 L496,288 L496,272 L496,208 L496,192 Z M496,336 L496,320 L464,320 L464,336 L464,400 L464,416 L496,416 L496,400 L496,336 Z" fill="currentColor" fill-rule="nonzero"></path>
</g>
</symbol>
<symbol id="close" viewBox="0 0 512 512">
<g stroke="none" stroke-width="1" fill="none" fill-rule="evenodd">
<path d="M256,48 C370.875228,48 464,141.124772 464,256 C464,370.875228 370.875228,464 256,464 C141.124772,464 48,370.875228 48,256 C48,141.124772 141.124772,48 256,48 Z M256,512 C397.384896,512 512,397.384896 512,256 C512,114.615104 397.384896,0 256,0 C114.615104,0 0,114.615104 0,256 C0,397.384896 114.615104,512 256,512 Z M353.9,192 L320,158.1 L303,175.1 L256,222.1 L209,175.1 L192,158.1 L158.1,192 L175.1,209 L222.1,256 L175.1,303 L158.1,320 L192,353.9 L209,336.9 L256,289.9 L303,336.9 L320,353.9 L353.9,320 L336.9,303 L289.9,256 L336.9,209 L353.9,192 Z" fill="currentColor" fill-rule="nonzero"></path>
</g>
</symbol>
<symbol id="home" viewBox="0 0 512 512">
<g stroke="none" stroke-width="1" fill="none" fill-rule="evenodd">
<path d="M256.5,0 L272,13.2 L536,237.2 L504.9,273.8 L480.5,253 L480.5,487.5 L480.5,511.5 L456.5,511.5 L56.5,511.5 L32.5,511.5 L32.5,487.5 L32.5,253 L8,273.8 L-23,237.2 L241,13.2 L256.5,0 Z M256.5,62.9 L80.5,212.3 L80.5,463.5 L160.5,463.5 L160.5,295.5 L160.5,271.5 L184.5,271.5 L328.5,271.5 L352.5,271.5 L352.5,295.5 L352.5,463.5 L432.5,463.5 L432.5,212.3 L256.5,63 L256.5,62.9 Z M208.5,463.5 L304.5,463.5 L304.5,319.5 L208.5,319.5 L208.5,463.5 Z" fill="currentColor" fill-rule="nonzero"></path>
</g>
</symbol>
<symbol id="down" viewBox="0 0 512 512">
<g stroke="none" stroke-width="1" fill="none" fill-rule="evenodd">
<path d="M292.545325,274.692864 L292.545325,219.769648 L292.545325,55 L219.454675,55 L219.454675,219.769648 L219.454675,274.692864 L164.636688,274.692864 L96,274.692864 L256,435 L416,274.692864 L347.363312,274.692864 L292.545325,274.692864 Z M421.125,219.428571 L476,219.428571 L476,274.285714 L476,292.571429 L295.255469,473.257143 L256.5,512 L217.744531,473.257143 L37,292.571429 L37,274.285714 L37,219.428571 L91.875,219.428571 L110.166667,219.428571 L165.041667,219.428571 L165.041667,164.571429 L165.041667,54.8571429 L165.041667,0 L219.916667,0 L293.083333,0 L347.958333,0 L347.958333,54.8571429 L347.958333,164.571429 L347.958333,219.428571 L402.833333,219.428571 L421.125,219.428571 Z" fill="currentColor" fill-rule="nonzero"></path>
</g>
</symbol>
<symbol id="up" viewBox="0 0 512 512">
<g stroke="none" stroke-width="1" fill="none" fill-rule="evenodd">
<path d="M219.454675,237.307136 L219.454675,292.230352 L219.454675,457 L292.545325,457 L292.545325,292.230352 L292.545325,237.307136 L347.363312,237.307136 L416,237.307136 L256,77 L96,237.307136 L164.636688,237.307136 L219.454675,237.307136 Z M91.875,292.571429 L37,292.571429 L37,237.714286 L37,219.428571 L217.744531,38.7428571 L256.5,0 L295.255469,38.7428571 L476,219.428571 L476,237.714286 L476,292.571429 L421.125,292.571429 L402.833333,292.571429 L347.958333,292.571429 L347.958333,347.428571 L347.958333,457.142857 L347.958333,512 L293.083333,512 L219.916667,512 L165.041667,512 L165.041667,457.142857 L165.041667,347.428571 L165.041667,292.571429 L110.166667,292.571429 L91.875,292.571429 Z" fill="currentColor" fill-rule="nonzero"></path>
</g>
</symbol>
<symbol id="right" viewBox="0 0 512 512">
<g stroke="none" stroke-width="1" fill="none" fill-rule="evenodd">
<path d="M274.692864,219.454675 L219.769648,219.454675 L55,219.454675 L55,292.545325 L219.769648,292.545325 L274.692864,292.545325 L274.692864,347.363312 L274.692864,416 L435,256 L274.692864,96 L274.692864,164.636688 L274.692864,219.454675 Z M219.428571,91.875 L219.428571,37 L274.285714,37 L292.571429,37 L473.257143,217.744531 L512,256.5 L473.257143,295.255469 L292.571429,476 L274.285714,476 L219.428571,476 L219.428571,421.125 L219.428571,402.833333 L219.428571,347.958333 L164.571429,347.958333 L54.8571429,347.958333 L0,347.958333 L0,293.083333 L0,219.916667 L0,165.041667 L54.8571429,165.041667 L164.571429,165.041667 L219.428571,165.041667 L219.428571,110.166667 L219.428571,91.875 Z" fill="currentColor" fill-rule="nonzero"></path>
</g>
</symbol>
<symbol id="tag" viewBox="0 0 512 512">
<g stroke="none" stroke-width="1" fill="none" fill-rule="evenodd">
<g fill="currentColor" fill-rule="nonzero">
<path d="M256,434.4 L54.8571429,233.257143 L54.8571429,54.8571429 L233.257143,54.8571429 L434.4,256 L256,434.4 Z M473.257143,217.257143 L256,0 L54.8571429,0 L0,0 L0,54.8571429 L0,256 L217.257143,473.257143 L256,512 L294.742857,473.257143 L473.257143,294.742857 L512,256 L473.257143,217.257143 Z M128,164.571429 C148.197842,164.571429 164.571429,148.197842 164.571429,128 C164.571429,107.802158 148.197842,91.4285714 128,91.4285714 C107.802158,91.4285714 91.4285714,107.802158 91.4285714,128 C91.4285714,148.197842 107.802158,164.571429 128,164.571429 Z" ></path>
</g>
</g>
</symbol>
<symbol id="author" viewBox="0 0 512 512">
<g stroke="none" stroke-width="1" fill="none" fill-rule="evenodd">
<g transform="translate(32, 0)" fill="currentColor" fill-rule="nonzero">
<path d="M304,128 C304,83.81722 268.18278,48 224,48 C179.81722,48 144,83.81722 144,128 C144,156.581247 159.247913,182.991409 184,197.282033 C208.752086,211.572657 239.247914,211.572657 264,197.282033 C288.752087,182.991409 304,156.581247 304,128 Z M96,128 C96,57.307552 153.307552,0 224,0 C294.692448,0 352,57.307552 352,128 C352,198.692448 294.692448,256 224,256 C153.307552,256 96,198.692448 96,128 Z M65,464 L383,464 L348.5,352 L99.5,352 L65,464 Z M64,304 L384,304 L433.2,464 L448,512 L397.8,512 L50.2,512 L0,512 L14.8,464 L64,304 Z" ></path>
</g>
</g>
</symbol>
<symbol id="left" viewBox="0 0 512 512">
<g stroke="none" stroke-width="1" fill="none" fill-rule="evenodd">
<path d="M237.307136,292.545325 L292.230352,292.545325 L457,292.545325 L457,219.454675 L292.230352,219.454675 L237.307136,219.454675 L237.307136,164.636688 L237.307136,96 L77,256 L237.307136,416 L237.307136,347.363312 L237.307136,292.545325 Z M292.571429,421.125 L292.571429,476 L237.714286,476 L219.428571,476 L38.7428571,295.255469 L0,256.5 L38.7428571,217.744531 L219.428571,37 L237.714286,37 L292.571429,37 L292.571429,91.875 L292.571429,110.166667 L292.571429,165.041667 L347.428571,165.041667 L457.142857,165.041667 L512,165.041667 L512,219.916667 L512,293.083333 L512,347.958333 L457.142857,347.958333 L347.428571,347.958333 L292.571429,347.958333 L292.571429,402.833333 L292.571429,421.125 Z" fill="currentColor" fill-rule="nonzero"></path>
</g>
</symbol>
<symbol id="instagram" viewBox="0 0 512 512">
<g stroke="none" stroke-width="1" fill="none" fill-rule="evenodd">
<path d="M256.175,141.175 C192.575,141.175 141.275,192.475 141.275,256.075 C141.275,319.675 192.575,370.975 256.175,370.975 C319.775,370.975 371.075,319.675 371.075,256.075 C371.075,192.475 319.775,141.175 256.175,141.175 Z M256.175,330.775 C215.075,330.775 181.475,297.275 181.475,256.075 C181.475,214.875 214.975,181.375 256.175,181.375 C297.375,181.375 330.875,214.875 330.875,256.075 C330.875,297.275 297.275,330.775 256.175,330.775 L256.175,330.775 Z M402.575,136.475 C402.575,151.375 390.575,163.275 375.775,163.275 C360.875,163.275 348.975,151.275 348.975,136.475 C348.975,121.675 360.975,109.675 375.775,109.675 C390.575,109.675 402.575,121.675 402.575,136.475 Z M478.675,163.675 C476.975,127.775 468.775,95.975 442.475,69.775 C416.275,43.575 384.475,35.375 348.575,33.575 C311.575,31.475 200.675,31.475 163.675,33.575 C127.875,35.275 96.075,43.475 69.775,69.675 C43.475,95.875 35.375,127.675 33.575,163.575 C31.475,200.575 31.475,311.475 33.575,348.475 C35.275,384.375 43.475,416.175 69.775,442.375 C96.075,468.575 127.775,476.775 163.675,478.575 C200.675,480.675 311.575,480.675 348.575,478.575 C384.475,476.875 416.275,468.675 442.475,442.375 C468.675,416.175 476.875,384.375 478.675,348.475 C480.775,311.475 480.775,200.675 478.675,163.675 Z M430.875,388.175 C423.075,407.775 407.975,422.875 388.275,430.775 C358.775,442.475 288.775,439.775 256.175,439.775 C223.575,439.775 153.475,442.375 124.075,430.775 C104.475,422.975 89.375,407.875 81.475,388.175 C69.775,358.675 72.475,288.675 72.475,256.075 C72.475,223.475 69.875,153.375 81.475,123.975 C89.275,104.375 104.375,89.275 124.075,81.375 C153.575,69.675 223.575,72.375 256.175,72.375 C288.775,72.375 358.875,69.775 388.275,81.375 C407.875,89.175 422.975,104.275 430.875,123.975 C442.575,153.475 439.875,223.475 439.875,256.075 C439.875,288.675 442.575,358.775 430.875,388.175 Z" fill="currentColor" fill-rule="nonzero"></path>
</g>
</symbol>
<symbol id="rss" viewBox="0 0 512 512">
<g stroke="none" stroke-width="1" fill="none" fill-rule="evenodd">
<path d="M480,480 C480,232.6 279.4,32 32,32 L32,96 C244.1,96 416,267.9 416,480 L480,480 Z M32,160 L32,224 C173.4,224 288,338.6 288,480 L352,480 C352,303.3 208.7,160 32,160 Z M160,416 C160,380.653776 131.346224,352 96,352 C60.653776,352 32,380.653776 32,416 C32,451.346224 60.653776,480 96,480 C131.346224,480 160,451.346224 160,416 Z" fill="currentColor" fill-rule="nonzero"></path>
</g>
</symbol>
<symbol id="bluesky" viewBox="0 0 512 512">
<g stroke="none" stroke-width="1" fill="none" fill-rule="evenodd">
<path d="M110.982765,60.3578471 C169.682338,104.444835 232.820395,193.834889 256.001501,241.806788 C279.184372,193.838421 342.318898,104.443952 401.020237,60.3578471 C443.374747,28.5464371 512,3.93257825 512,82.2551823 C512,97.8972715 503.035639,213.656856 497.777959,232.449972 C479.502315,297.78784 412.906512,314.4526 353.668459,304.366314 C457.215438,321.997223 483.556801,380.397182 426.669521,438.797141 C318.629327,549.71008 271.384362,410.96867 259.272985,375.418066 C257.053743,368.900794 256.015272,365.851947 256,368.444478 C255.98464,365.851858 254.946257,368.900785 252.727015,375.418066 C240.620934,410.96867 193.376853,549.713613 85.3304791,438.797141 C28.442316,380.397182 54.7827961,321.99369 158.331541,304.366314 C99.0917226,314.4526 32.4950371,297.787752 14.2220408,232.449972 C8.96418469,213.65509 0,97.8955052 0,82.2551823 C0,3.93257825 68.6270184,28.5464371 110.979763,60.3578471 L110.982765,60.3578471 Z" fill="currentColor" fill-rule="nonzero"></path>
</g>
</symbol>
<symbol id="linkedin" viewBox="0 0 512 512">
<g stroke="none" stroke-width="1" fill="none" fill-rule="evenodd">
<path d="M448,32 L63.9,32 C46.3,32 32,46.5 32,64.3 L32,447.7 C32,465.5 46.3,480 63.9,480 L448,480 C465.6,480 480,465.5 480,447.7 L480,64.3 C480,46.5 465.6,32 448,32 Z M167.4,416 L101,416 L101,202.2 L167.5,202.2 L167.5,416 L167.4,416 Z M134.2,173 C112.9,173 95.7,155.7 95.7,134.5 C95.7,113.3 112.9,96 134.2,96 C155.4,96 172.7,113.3 172.7,134.5 C172.7,155.8 155.5,173 134.2,173 L134.2,173 Z M416.3,416 L349.9,416 L349.9,312 C349.9,287.2 349.4,255.3 315.4,255.3 C280.8,255.3 275.5,282.3 275.5,310.2 L275.5,416 L209.1,416 L209.1,202.2 L272.8,202.2 L272.8,231.4 L273.7,231.4 C282.6,214.6 304.3,196.9 336.6,196.9 C403.8,196.9 416.3,241.2 416.3,298.8 L416.3,416 L416.3,416 Z" fill="currentColor" fill-rule="nonzero"></path>
</g>
</symbol>
<symbol id="twitter" viewBox="0 0 512 512">
<g stroke="none" stroke-width="1" fill="none" fill-rule="evenodd">
<path d="M388.4,48 L459,48 L304.8,224.2 L486.2,464 L344.2,464 L232.9,318.6 L105.7,464 L35,464 L199.9,275.5 L26,48 L171.6,48 L272.1,180.9 L388.4,48 Z M363.6,421.8 L402.7,421.8 L150.3,88 L108.3,88 L363.6,421.8 Z" fill="currentColor" fill-rule="nonzero"></path>
</g>
</symbol>
<use href="#email" x="5296" y="649" width="512" height="512"></use>
<use href="#link" x="4634" y="649" width="512" height="512"></use>
<use href="#address" x="3972" y="649" width="512" height="512"></use>
<use href="#close" x="3310" y="649" width="512" height="512"></use>
<use href="#home" x="2648" y="649" width="512" height="512"></use>
<use href="#down" x="1986" y="649" width="512" height="512"></use>
<use href="#up" x="1324" y="649" width="512" height="512"></use>
<use href="#right" x="662" y="649" width="512" height="512"></use>
<use href="#tag" x="662" y="1298" width="512" height="512"></use>
<use href="#author" x="0" y="1298" width="512" height="512"></use>
<use href="#left" x="0" y="649" width="512" height="512"></use>
<use href="#instagram" x="2648" y="0" width="512" height="512"></use>
<use href="#rss" x="1986" y="0" width="512" height="512"></use>
<use href="#bluesky" x="1324" y="0" width="512" height="512"></use>
<use href="#linkedin" x="662" y="0" width="512" height="512"></use>
<use href="#twitter" x="0" y="0" width="512" height="512"></use>
</svg>