<?xml version="1.0" encoding="UTF-8"?>
<svg width="1565px" height="226px" viewBox="0 0 1565 226" version="1.1" xmlns="http://www.w3.org/2000/svg" xmlns:xlink="http://www.w3.org/1999/xlink">
  <g id="wordmark" stroke="none" stroke-width="1" fill="none" fill-rule="evenodd">
    <polygon fill="#009B9A" fill-rule="nonzero" points="164.8 59.9 134.3 78.5 133.9 42.8"></polygon>
    <path d="M133.6,7 L165,24.4 L165.263,47.924 L187.7,48.3 L204.8,79.7 L134.3,78.5 L149.656,51.472 L103.7,26 L133.6,7 Z" fill="#001F44" fill-rule="nonzero"></path>
    <path d="M71.7,78.3 L44.942,63.096 L19,109.9 L0,80 L17.4,48.6 L41.108,48.334 L41.5,24.9 L72.9,7.8 L103.7,26 L72.3,43.1 L72.609,24.9 L71.7,78.3 Z" fill="#001F44" fill-rule="nonzero"></path>
    <polygon fill="#009B9A" fill-rule="nonzero" points="40.8 160.6 71.3 141.9 71.6 177.7"></polygon>
    <path d="M0.8,140.7 L71.3,141.9 L55.982,168.86 L102.6,194.7 L72.6,213.6 L41.2,196.2 L41,172.486 L17.9,172.1 L0.8,140.7 Z" fill="#001F44" fill-rule="nonzero"></path>
    <path d="M186.6,110.4 L205.6,140.4 L188.2,171.8 L165.196,171.992 L164.8,195.7 L133.3,212.8 L134.6,142.3 L160.698,157.128 L186.6,110.4 Z" fill="#001F44" fill-rule="nonzero"></path>
    <polygon fill="#009B9A" fill-rule="nonzero" points="133.3 212.8 102.5 194.7 133.9 177.6"></polygon>
    <polygon fill="#009B9A" fill-rule="nonzero" points="53.2 48.2 71.8 78.7 36.1 79.1"></polygon>
    <polygon fill="#009B9A" fill-rule="nonzero" points="0.8 140.7 19 109.9 36.1 141.3"></polygon>
    <polygon fill="#009B9A" fill-rule="nonzero" points="152.4 172.3 134.6 142.3 169.5 141.5"></polygon>
    <polygon fill="#009B9A" fill-rule="nonzero" points="204.8 79.7 186.6 110.5 169.6 79.1"></polygon>
    <g transform="translate(253.3463, 49.5001)" fill="#001F44" fill-rule="nonzero">
      <polygon  points="0 129.5 0 0 24.7264062 0 101.189219 93.3209375 89.2278125 93.3209375 89.2278125 0 118.830703 0 118.830703 129.5 94.1042969 129.5 17.6385937 36.1790625 29.6 36.1790625 29.6 129.5"></polygon>
      <path d="M194.768361,130.904844 C184.225288,130.904844 174.852436,128.709414 166.649806,124.318555 C158.447176,119.927695 151.985183,113.871836 147.263829,106.150977 C142.542475,98.4301172 140.181798,89.6074479 140.181798,79.6829687 C140.181798,69.6833333 142.549702,60.8466927 147.285509,53.1730469 C152.021316,45.499401 158.475118,39.4816016 166.646915,35.1196484 C174.818712,30.7576953 184.192527,28.5767187 194.768361,28.5767187 C205.346121,28.5767187 214.75366,30.7552865 222.990978,35.1124219 C231.228295,39.4695573 237.682098,45.480612 242.352384,53.1455859 C247.02267,60.8105599 249.357814,69.6573177 249.357814,79.6858594 C249.357814,89.6353906 247.027488,98.4638411 242.366837,106.171211 C237.706186,113.878581 231.24323,119.927695 222.97797,124.318555 C214.71271,128.709414 205.309506,130.904844 194.768361,130.904844 Z M194.768361,107.273984 C199.6381,107.273984 203.975965,106.180365 207.781954,103.993125 C211.587944,101.805885 214.603348,98.6247526 216.828165,94.4497266 C219.052983,90.2747005 220.165392,85.354375 220.165392,79.68875 C220.165392,73.9190625 219.052983,68.9895833 216.828165,64.9003125 C214.603348,60.8110417 211.587944,57.6727865 207.781954,55.4855469 C203.975965,53.2983073 199.657371,52.2046875 194.826173,52.2046875 C189.993048,52.2046875 185.673491,53.2983073 181.867501,55.4855469 C178.061512,57.6727865 175.027801,60.8110417 172.766368,64.9003125 C170.504936,68.9895833 169.37422,73.9190625 169.37422,79.68875 C169.37422,85.354375 170.504936,90.2747005 172.766368,94.4497266 C175.027801,98.6247526 178.059103,101.805885 181.860275,103.993125 C185.661446,106.180365 189.964142,107.273984 194.768361,107.273984 Z" ></path>
      <path d="M268.743856,129.5 L268.743856,29.9786719 L296.239481,29.9786719 L296.239481,58.159375 L292.444091,50.0222656 C295.377112,42.9479427 300.105211,37.6051042 306.628388,33.99375 C313.151565,30.3823958 321.124872,28.5767187 330.548309,28.5767187 L330.548309,55.1935938 C329.291851,55.0220833 328.159208,54.8934505 327.15038,54.8076953 C326.141552,54.7219401 325.120679,54.6790625 324.087763,54.6790625 C316.086513,54.6790625 309.672216,56.9457943 304.844872,61.4792578 C300.017528,66.0127214 297.603856,73.0316406 297.603856,82.5360156 L297.603856,129.5 L268.743856,129.5 Z"></path>
      <path d="M391.99337,130.904844 C380.215036,130.904844 371.073435,127.934727 364.568565,121.994492 C358.063695,116.054258 354.81126,107.157396 354.81126,95.3039063 L354.81126,7.89429688 L383.67126,7.89429688 L383.67126,94.8211719 C383.67126,99.0202865 384.764398,102.280911 386.950674,104.603047 C389.13695,106.925182 392.133083,108.08625 395.939073,108.08625 C400.556364,108.08625 404.482797,106.863516 407.71837,104.418047 L415.364073,124.756484 C412.454177,126.830026 408.934359,128.373138 404.80462,129.38582 C400.67488,130.398503 396.404463,130.904844 391.99337,130.904844 Z M339.372432,54.3321875 L339.372432,32.1813281 L408.409229,32.1813281 L408.409229,54.3321875 L339.372432,54.3321875 Z"></path>
      <path d="M522.579289,0 L552.621555,0 L552.621555,129.5 L522.579289,129.5 L522.579289,0 Z M463.830226,129.5 L433.790851,129.5 L433.790851,0 L463.830226,0 L463.830226,129.5 Z M524.75882,76.4107812 L461.540851,76.4107812 L461.540851,51.1264844 L524.75882,51.1264844 L524.75882,76.4107812 Z"></path>
      <path d="M611.062259,58.2547656 L673.288743,58.2547656 L673.288743,82.3654687 L611.062259,82.3654687 L611.062259,58.2547656 Z M613.351634,129.5 L583.312259,129.5 L583.312259,0 L681.096321,0 L681.096321,24.1107031 L613.351634,24.1107031 L613.351634,129.5 Z" ></path>
      <path d="M739.031241,130.904844 C730.715876,130.904844 723.339483,129.326081 716.902061,126.168555 C710.464639,123.011029 705.433025,118.115755 701.807217,111.482734 C698.18141,104.849714 696.368506,96.4167969 696.368506,86.1839844 L696.368506,29.9786719 L725.228506,29.9786719 L725.228506,81.8711719 C725.228506,90.2154427 726.995642,96.3267057 730.529913,100.204961 C734.064184,104.083216 739.019678,106.022344 745.396397,106.022344 C749.873012,106.022344 753.84184,105.058802 757.302881,103.131719 C760.763923,101.204635 763.488819,98.2465625 765.477569,94.2575 C767.466319,90.2684375 768.460694,85.249349 768.460694,79.2002344 L768.460694,29.9786719 L797.320694,29.9786719 L797.320694,129.5 L769.825069,129.5 L769.825069,102.056406 L774.990616,110.124141 C771.562335,116.974922 766.623702,122.151068 760.174717,125.652578 C753.725733,129.154089 746.677908,130.904844 739.031241,130.904844 Z" ></path>
      <path d="M864.774184,130.904844 C852.995851,130.904844 843.854249,127.934727 837.349379,121.994492 C830.84451,116.054258 827.592075,107.157396 827.592075,95.3039063 L827.592075,7.89429688 L856.452075,7.89429688 L856.452075,94.8211719 C856.452075,99.0202865 857.545213,102.280911 859.731489,104.603047 C861.917765,106.925182 864.913898,108.08625 868.719887,108.08625 C873.337179,108.08625 877.263611,106.863516 880.499184,104.418047 L888.144887,124.756484 C885.234991,126.830026 881.715174,128.373138 877.585434,129.38582 C873.455694,130.398503 869.185278,130.904844 864.774184,130.904844 Z M812.153247,54.3321875 L812.153247,32.1813281 L881.190043,32.1813281 L881.190043,54.3321875 L812.153247,54.3321875 Z"></path>
      <path d="M946.563463,130.904844 C938.248098,130.904844 930.871705,129.326081 924.434283,126.168555 C917.996861,123.011029 912.965247,118.115755 909.339439,111.482734 C905.713632,104.849714 903.900728,96.4167969 903.900728,86.1839844 L903.900728,29.9786719 L932.760728,29.9786719 L932.760728,81.8711719 C932.760728,90.2154427 934.527864,96.3267057 938.062135,100.204961 C941.596406,104.083216 946.5519,106.022344 952.928619,106.022344 C957.405234,106.022344 961.374062,105.058802 964.835103,103.131719 C968.296145,101.204635 971.021041,98.2465625 973.009791,94.2575 C974.998541,90.2684375 975.992916,85.249349 975.992916,79.2002344 L975.992916,29.9786719 L1004.85292,29.9786719 L1004.85292,129.5 L977.357291,129.5 L977.357291,102.056406 L982.522838,110.124141 C979.094557,116.974922 974.155924,122.151068 967.706939,125.652578 C961.257955,129.154089 954.210129,130.904844 946.563463,130.904844 Z"></path>
      <path d="M1031.61508,129.5 L1031.61508,29.9786719 L1059.1107,29.9786719 L1059.1107,58.159375 L1055.31531,50.0222656 C1058.24833,42.9479427 1062.97643,37.6051042 1069.49961,33.99375 C1076.02279,30.3823958 1083.99609,28.5767187 1093.41953,28.5767187 L1093.41953,55.1935938 C1092.16307,55.0220833 1091.03043,54.8934505 1090.0216,54.8076953 C1089.01277,54.7219401 1087.9919,54.6790625 1086.95898,54.6790625 C1078.95773,54.6790625 1072.54344,56.9457943 1067.71609,61.4792578 C1062.88875,66.0127214 1060.47508,73.0316406 1060.47508,82.5360156 L1060.47508,129.5 L1031.61508,129.5 Z"></path>
      <path d="M1159.08575,130.904844 C1147.71981,130.904844 1137.77799,128.69737 1129.26028,124.282422 C1120.74257,119.867474 1114.14135,113.794271 1109.45661,106.062813 C1104.77187,98.3313542 1102.4295,89.5448177 1102.4295,79.7032031 C1102.4295,69.7633073 1104.72225,60.9401563 1109.30774,53.23375 C1113.89324,45.5273438 1120.19865,39.491237 1128.22399,35.1254297 C1136.24933,30.7596224 1145.31674,28.5767187 1155.42622,28.5767187 C1165.19268,28.5767187 1173.98355,30.6430339 1181.79884,34.7756641 C1189.61412,38.9082943 1195.80199,44.822513 1200.36243,52.5183203 C1204.92287,60.2141276 1207.20309,69.4241406 1207.20309,80.1483594 C1207.20309,81.2564323 1207.16022,82.5186719 1207.07446,83.9350781 C1206.98871,85.3514844 1206.88416,86.6513021 1206.76083,87.8345312 L1125.86091,87.8345312 L1125.86091,71.016875 L1191.48099,71.016875 L1180.33184,76.0465625 C1180.407,70.9089583 1179.38179,66.4135547 1177.25622,62.5603516 C1175.13065,58.7071484 1172.22075,55.6931901 1168.52653,53.5184766 C1164.83231,51.343763 1160.51372,50.2564062 1155.57075,50.2564062 C1150.62971,50.2564062 1146.28125,51.343763 1142.52536,53.5184766 C1138.76947,55.6931901 1135.85958,58.7259375 1133.79567,62.6167188 C1131.73177,66.5075 1130.69981,71.0958854 1130.69981,76.381875 L1130.69981,80.8854688 C1130.69981,86.3198437 1131.89798,91.0807031 1134.29431,95.1680469 C1136.69063,99.2553906 1140.0876,102.404727 1144.4852,104.616055 C1148.88281,106.827383 1154.03294,107.933047 1159.93559,107.933047 C1165.21773,107.933047 1169.85333,107.130417 1173.84239,105.525156 C1177.83145,103.919896 1181.52856,101.474427 1184.93372,98.18875 L1200.28872,114.847422 C1195.65216,120.075599 1189.89403,124.05888 1183.01434,126.797266 C1176.13466,129.535651 1168.15846,130.904844 1159.08575,130.904844 Z"></path>
      <path d="M1259.9274,130.904844 C1251.5176,130.904844 1243.39832,129.88638 1235.56954,127.849453 C1227.74077,125.812526 1221.4975,123.277448 1216.83974,120.244219 L1226.52333,99.599375 C1231.03464,102.436042 1236.41023,104.730716 1242.65013,106.483398 C1248.89003,108.236081 1255.06922,109.112422 1261.18771,109.112422 C1267.80724,109.112422 1272.51366,108.308346 1275.30697,106.700195 C1278.10027,105.092044 1279.49693,102.878307 1279.49693,100.058984 C1279.49693,97.759974 1278.4115,96.0111458 1276.24064,94.8125 C1274.06978,93.6138542 1271.2018,92.6989714 1267.63669,92.0678516 C1264.07159,91.4367318 1260.14853,90.8253646 1255.86751,90.23375 C1251.5865,89.6421354 1247.29344,88.8096354 1242.98833,87.73625 C1238.68323,86.6628646 1234.74861,85.0908464 1231.18447,83.0201953 C1227.62033,80.9495443 1224.75234,78.1263672 1222.58052,74.5506641 C1220.4087,70.9749609 1219.32279,66.3263542 1219.32279,60.6048438 C1219.32279,54.3398958 1221.154,48.8033854 1224.81642,43.9953125 C1228.47884,39.1872396 1233.73593,35.4154557 1240.58767,32.6799609 C1247.43941,29.9444661 1255.683,28.5767187 1265.31841,28.5767187 C1272.1981,28.5767187 1279.13319,29.3109375 1286.12369,30.779375 C1293.11418,32.2478125 1298.96336,34.3627865 1303.67122,37.1242969 L1293.98763,57.7691406 C1289.17956,54.932474 1284.3527,52.989974 1279.50704,51.9416406 C1274.66139,50.8933073 1269.96846,50.3691406 1265.42826,50.3691406 C1258.93398,50.3691406 1254.20974,51.234401 1251.25552,52.9649219 C1248.3013,54.6954427 1246.82419,56.8846094 1246.82419,59.5324219 C1246.82419,61.9798177 1247.9101,63.8336719 1250.08193,65.0939844 C1252.25375,66.3542969 1255.12221,67.3371094 1258.68732,68.0424219 C1262.25242,68.7477344 1266.175,69.3966797 1270.45505,69.9892578 C1274.7351,70.5818359 1279.01564,71.4263802 1283.29665,72.5228906 C1287.57767,73.619401 1291.50025,75.1846745 1295.06439,77.2187109 C1298.62853,79.2527474 1301.49651,82.0393099 1303.66833,85.5783984 C1305.84016,89.117487 1306.92607,93.7102083 1306.92607,99.3565625 C1306.92607,105.475052 1305.08859,110.913281 1301.41365,115.67125 C1297.7387,120.429219 1292.40694,124.157643 1285.41837,126.856523 C1278.42981,129.555404 1269.93281,130.904844 1259.9274,130.904844 Z"></path>
    </g>
  </g>
</svg>
